<mxfile host="app.diagrams.net" modified="2024-01-13T17:04:17.898Z" agent="Mozilla/5.0 (Macintosh; Intel Mac OS X 10_15_7) AppleWebKit/537.36 (KHTML, like Gecko) Chrome/120.0.0.0 Safari/537.36" etag="yPFhzftoCHS4BdXWogLE" version="22.1.18" type="github">
  <diagram name="Page-1" id="y0OPLyNs01D7GUPlSSwl">
    <mxGraphModel dx="1062" dy="564" grid="1" gridSize="10" guides="1" tooltips="1" connect="1" arrows="1" fold="1" page="1" pageScale="1" pageWidth="827" pageHeight="1169" math="0" shadow="0">
      <root>
        <mxCell id="0" />
        <mxCell id="1" parent="0" />
        <mxCell id="6Ch_1Aqiy034qqtVkkh1-1" value="DSL Router" style="rounded=0;whiteSpace=wrap;html=1;align=right;" vertex="1" parent="1">
          <mxGeometry x="140" y="120" width="120" height="190" as="geometry" />
        </mxCell>
        <mxCell id="6Ch_1Aqiy034qqtVkkh1-2" value="443" style="rounded=0;whiteSpace=wrap;html=1;fillColor=#dae8fc;strokeColor=#6c8ebf;" vertex="1" parent="1">
          <mxGeometry x="140" y="210" width="50" height="20" as="geometry" />
        </mxCell>
        <mxCell id="6Ch_1Aqiy034qqtVkkh1-3" value="25" style="rounded=0;whiteSpace=wrap;html=1;fillColor=#dae8fc;strokeColor=#6c8ebf;" vertex="1" parent="1">
          <mxGeometry x="140" y="130" width="50" height="20" as="geometry" />
        </mxCell>
        <mxCell id="6Ch_1Aqiy034qqtVkkh1-4" value="" style="ellipse;shape=cloud;whiteSpace=wrap;html=1;" vertex="1" parent="1">
          <mxGeometry y="125" width="120" height="80" as="geometry" />
        </mxCell>
        <mxCell id="6Ch_1Aqiy034qqtVkkh1-5" value="Raspberry-Pi" style="rounded=0;whiteSpace=wrap;html=1;shadow=0;glass=0;verticalAlign=top;" vertex="1" parent="1">
          <mxGeometry x="320" y="90" width="250" height="300" as="geometry" />
        </mxCell>
        <mxCell id="6Ch_1Aqiy034qqtVkkh1-21" style="edgeStyle=orthogonalEdgeStyle;rounded=0;orthogonalLoop=1;jettySize=auto;html=1;exitX=1;exitY=0.5;exitDx=0;exitDy=0;entryX=1;entryY=0.5;entryDx=0;entryDy=0;" edge="1" parent="1" source="6Ch_1Aqiy034qqtVkkh1-7" target="6Ch_1Aqiy034qqtVkkh1-20">
          <mxGeometry relative="1" as="geometry" />
        </mxCell>
        <mxCell id="6Ch_1Aqiy034qqtVkkh1-24" style="edgeStyle=orthogonalEdgeStyle;rounded=0;orthogonalLoop=1;jettySize=auto;html=1;exitX=1;exitY=0.5;exitDx=0;exitDy=0;entryX=0;entryY=0.5;entryDx=0;entryDy=0;" edge="1" parent="1" source="6Ch_1Aqiy034qqtVkkh1-7" target="6Ch_1Aqiy034qqtVkkh1-23">
          <mxGeometry relative="1" as="geometry">
            <Array as="points">
              <mxPoint x="550" y="205" />
              <mxPoint x="550" y="260" />
              <mxPoint x="340" y="260" />
              <mxPoint x="340" y="300" />
            </Array>
          </mxGeometry>
        </mxCell>
        <mxCell id="6Ch_1Aqiy034qqtVkkh1-7" value="mypi-router (docker)" style="rounded=0;whiteSpace=wrap;html=1;verticalAlign=top;align=right;" vertex="1" parent="1">
          <mxGeometry x="360" y="170" width="170" height="70" as="geometry" />
        </mxCell>
        <mxCell id="6Ch_1Aqiy034qqtVkkh1-8" value="nsd&amp;nbsp;(docker)" style="rounded=0;whiteSpace=wrap;html=1;verticalAlign=top;align=right;" vertex="1" parent="1">
          <mxGeometry x="360" y="120" width="170" height="40" as="geometry" />
        </mxCell>
        <mxCell id="6Ch_1Aqiy034qqtVkkh1-9" value="10443" style="rounded=0;whiteSpace=wrap;html=1;fillColor=#dae8fc;strokeColor=#6c8ebf;" vertex="1" parent="1">
          <mxGeometry x="360" y="210" width="50" height="20" as="geometry" />
        </mxCell>
        <mxCell id="6Ch_1Aqiy034qqtVkkh1-11" value="10025" style="rounded=0;whiteSpace=wrap;html=1;fillColor=#dae8fc;strokeColor=#6c8ebf;" vertex="1" parent="1">
          <mxGeometry x="360" y="130" width="50" height="20" as="geometry" />
        </mxCell>
        <mxCell id="6Ch_1Aqiy034qqtVkkh1-15" value="10080" style="rounded=0;whiteSpace=wrap;html=1;fillColor=#dae8fc;strokeColor=#6c8ebf;" vertex="1" parent="1">
          <mxGeometry x="360" y="180" width="50" height="20" as="geometry" />
        </mxCell>
        <mxCell id="6Ch_1Aqiy034qqtVkkh1-16" value="80" style="rounded=0;whiteSpace=wrap;html=1;fillColor=#dae8fc;strokeColor=#6c8ebf;" vertex="1" parent="1">
          <mxGeometry x="140" y="180" width="50" height="20" as="geometry" />
        </mxCell>
        <mxCell id="6Ch_1Aqiy034qqtVkkh1-17" style="edgeStyle=orthogonalEdgeStyle;rounded=0;orthogonalLoop=1;jettySize=auto;html=1;" edge="1" parent="1" target="6Ch_1Aqiy034qqtVkkh1-11">
          <mxGeometry relative="1" as="geometry">
            <mxPoint x="260" y="140" as="sourcePoint" />
            <Array as="points">
              <mxPoint x="262" y="140" />
            </Array>
          </mxGeometry>
        </mxCell>
        <mxCell id="6Ch_1Aqiy034qqtVkkh1-18" style="edgeStyle=orthogonalEdgeStyle;rounded=0;orthogonalLoop=1;jettySize=auto;html=1;exitX=1;exitY=0.5;exitDx=0;exitDy=0;entryX=0;entryY=0.5;entryDx=0;entryDy=0;" edge="1" parent="1" source="6Ch_1Aqiy034qqtVkkh1-1" target="6Ch_1Aqiy034qqtVkkh1-15">
          <mxGeometry relative="1" as="geometry">
            <Array as="points">
              <mxPoint x="260" y="190" />
            </Array>
          </mxGeometry>
        </mxCell>
        <mxCell id="6Ch_1Aqiy034qqtVkkh1-19" style="edgeStyle=orthogonalEdgeStyle;rounded=0;orthogonalLoop=1;jettySize=auto;html=1;exitX=1;exitY=0.75;exitDx=0;exitDy=0;" edge="1" parent="1" source="6Ch_1Aqiy034qqtVkkh1-1" target="6Ch_1Aqiy034qqtVkkh1-9">
          <mxGeometry relative="1" as="geometry">
            <Array as="points">
              <mxPoint x="260" y="220" />
            </Array>
          </mxGeometry>
        </mxCell>
        <mxCell id="6Ch_1Aqiy034qqtVkkh1-20" value="80" style="rounded=0;whiteSpace=wrap;html=1;fillColor=#dae8fc;strokeColor=#6c8ebf;" vertex="1" parent="1">
          <mxGeometry x="210" y="250" width="50" height="20" as="geometry" />
        </mxCell>
        <mxCell id="6Ch_1Aqiy034qqtVkkh1-22" value="mypi-auth&amp;nbsp;(docker)" style="rounded=0;whiteSpace=wrap;html=1;verticalAlign=top;align=right;" vertex="1" parent="1">
          <mxGeometry x="360" y="280" width="170" height="40" as="geometry" />
        </mxCell>
        <mxCell id="6Ch_1Aqiy034qqtVkkh1-29" style="edgeStyle=orthogonalEdgeStyle;rounded=0;orthogonalLoop=1;jettySize=auto;html=1;exitX=0;exitY=0.5;exitDx=0;exitDy=0;entryX=0;entryY=0.5;entryDx=0;entryDy=0;" edge="1" parent="1" source="6Ch_1Aqiy034qqtVkkh1-23" target="6Ch_1Aqiy034qqtVkkh1-27">
          <mxGeometry relative="1" as="geometry" />
        </mxCell>
        <mxCell id="6Ch_1Aqiy034qqtVkkh1-23" value="8080" style="rounded=0;whiteSpace=wrap;html=1;fillColor=#dae8fc;strokeColor=#6c8ebf;" vertex="1" parent="1">
          <mxGeometry x="360" y="290" width="50" height="20" as="geometry" />
        </mxCell>
        <mxCell id="6Ch_1Aqiy034qqtVkkh1-26" value="other applications (docker)" style="rounded=0;whiteSpace=wrap;html=1;verticalAlign=top;align=right;" vertex="1" parent="1">
          <mxGeometry x="360" y="330" width="170" height="40" as="geometry" />
        </mxCell>
        <mxCell id="6Ch_1Aqiy034qqtVkkh1-32" style="edgeStyle=orthogonalEdgeStyle;rounded=0;orthogonalLoop=1;jettySize=auto;html=1;exitX=0;exitY=0.5;exitDx=0;exitDy=0;entryX=0;entryY=0.5;entryDx=0;entryDy=0;" edge="1" parent="1" source="6Ch_1Aqiy034qqtVkkh1-27" target="6Ch_1Aqiy034qqtVkkh1-31">
          <mxGeometry relative="1" as="geometry" />
        </mxCell>
        <mxCell id="6Ch_1Aqiy034qqtVkkh1-27" value="?" style="rounded=0;whiteSpace=wrap;html=1;fillColor=#dae8fc;strokeColor=#6c8ebf;" vertex="1" parent="1">
          <mxGeometry x="360" y="340" width="20" height="20" as="geometry" />
        </mxCell>
        <mxCell id="6Ch_1Aqiy034qqtVkkh1-30" value="other applications &lt;br&gt;(local network)" style="rounded=0;whiteSpace=wrap;html=1;verticalAlign=top;align=right;" vertex="1" parent="1">
          <mxGeometry x="360" y="410" width="170" height="40" as="geometry" />
        </mxCell>
        <mxCell id="6Ch_1Aqiy034qqtVkkh1-31" value="?" style="rounded=0;whiteSpace=wrap;html=1;fillColor=#dae8fc;strokeColor=#6c8ebf;" vertex="1" parent="1">
          <mxGeometry x="360" y="420" width="20" height="20" as="geometry" />
        </mxCell>
        <mxCell id="6Ch_1Aqiy034qqtVkkh1-36" value="" style="endArrow=classic;html=1;rounded=0;entryX=0;entryY=0.5;entryDx=0;entryDy=0;" edge="1" parent="1" target="6Ch_1Aqiy034qqtVkkh1-3">
          <mxGeometry width="50" height="50" relative="1" as="geometry">
            <mxPoint x="90" y="160" as="sourcePoint" />
            <mxPoint x="140" y="110" as="targetPoint" />
          </mxGeometry>
        </mxCell>
        <mxCell id="6Ch_1Aqiy034qqtVkkh1-37" value="" style="endArrow=classic;html=1;rounded=0;entryX=-0.007;entryY=0.366;entryDx=0;entryDy=0;entryPerimeter=0;" edge="1" parent="1" target="6Ch_1Aqiy034qqtVkkh1-1">
          <mxGeometry width="50" height="50" relative="1" as="geometry">
            <mxPoint x="90" y="170" as="sourcePoint" />
            <mxPoint x="140" y="120" as="targetPoint" />
          </mxGeometry>
        </mxCell>
        <mxCell id="6Ch_1Aqiy034qqtVkkh1-38" value="" style="endArrow=classic;html=1;rounded=0;entryX=0;entryY=0.5;entryDx=0;entryDy=0;" edge="1" parent="1" target="6Ch_1Aqiy034qqtVkkh1-2">
          <mxGeometry width="50" height="50" relative="1" as="geometry">
            <mxPoint x="90" y="180" as="sourcePoint" />
            <mxPoint x="140" y="130" as="targetPoint" />
          </mxGeometry>
        </mxCell>
      </root>
    </mxGraphModel>
  </diagram>
</mxfile>
